# xmcd CD database file
#
# Track frame offsets:
#	183
#	20345
#	46183
#	64745
#	80633
#	101995
#	127783
#	143820
#	164708
#	183770
#	205095
#	226883
#	244658
#	264783
#
# Disc length: 3832 seconds
#
# Revision: 4
# Processed by: cddbd v1.5.1PL0 Copyright (c) Steve Scherf et al.
# Submitted via: CDex 1.50
#
DISCID=b40ef60e
DTITLE=Oslo Gospel Choir - Best of
DYEAR=1994
DGENRE=Gospel
TTITLE0=High And Mighty
TTITLE1=Oh Happy Day
TTITLE2=His Name Will Shine
TTITLE3=Get Together
TTITLE4=Thats Why I Sing
TTITLE5=We Need To Hear From You
TTITLE6=Get On Board
TTITLE7=Oh, It Is Jesus
TTITLE8=In This House
TTITLE9=I Wanna Be Ready
TTITLE10=Never Gonna Loose My Way
TTITLE11=Let The Sun Shine
TTITLE12=Save The Children
TTITLE13=Shine Your Light
EXTD=YEAR: 1994
EXTT0=
EXTT1=
EXTT2=
EXTT3=
EXTT4=
EXTT5=
EXTT6=
EXTT7=
EXTT8=
EXTT9=
EXTT10=
EXTT11=
EXTT12=
EXTT13=
PLAYORDER=
